HIERARCHY
ROOT hip
{
  OFFSET 0 0 0
  CHANNELS 6 Xposition Yposition Zposition Zrotation Yrotation Xrotation
  JOINT abdomen
  {
    OFFSET 0 20.6881 -0.73152
    CHANNELS 3 Zrotation Xrotation Yrotation
    JOINT chest
    {
      OFFSET 0 11.7043 -0.48768
      CHANNELS 3 Zrotation Xrotation Yrotation
      JOINT neck
      {
        OFFSET 0 22.1894 -2.19456
        CHANNELS 3 Zrotation Xrotation Yrotation
        JOINT head
        {
          OFFSET -0.24384 7.07133 1.2192
          CHANNELS 3 Zrotation Xrotation Yrotation
          JOINT leftEye
          {
            OFFSET 4.14528 8.04674 8.04672
            CHANNELS 3 Zrotation Xrotation Yrotation
            End Site
            {
              OFFSET 1 0 0
            }
          }
          JOINT rightEye
          {
            OFFSET -3.6576 8.04674 8.04672
            CHANNELS 3 Zrotation Xrotation Yrotation
            End Site
            {
              OFFSET 1 0 0
            }
          }
        }
      }
      JOINT rCollar
      {
        OFFSET -2.68224 19.2634 -4.8768
        CHANNELS 3 Zrotation Xrotation Yrotation
        JOINT rShldr
        {
          OFFSET -8.77824 -1.95073 1.46304
          CHANNELS 3 Zrotation Xrotation Yrotation
          JOINT rForeArm
          {
            OFFSET -28.1742 -1.7115 0.48768
            CHANNELS 3 Zrotation Xrotation Yrotation
            JOINT rHand
            {
              OFFSET -22.5879 0.773209 7.07136
              CHANNELS 3 Zrotation Xrotation Yrotation
              JOINT rThumb1
              {
                OFFSET -1.2192 -0.487915 3.41376
                CHANNELS 3 Zrotation Xrotation Yrotation
                JOINT rThumb2
                {
                  OFFSET -3.37035 -0.52449 3.41376
                  CHANNELS 3 Zrotation Xrotation Yrotation
                  End Site
                  {
                    OFFSET -1.78271 -1.18214 1.43049
                  }
                }
              }
              JOINT rIndex1
              {
                OFFSET -7.75947 0.938293 5.60832
                CHANNELS 3 Zrotation Xrotation Yrotation
                JOINT rIndex2
                {
                  OFFSET -2.54057 -0.884171 1.56538
                  CHANNELS 3 Zrotation Xrotation Yrotation
                  End Site
                  {
                    OFFSET -1.62519 -0.234802 1.16502
                  }
                }
              }
              JOINT rMid1
              {
                OFFSET -8.24714 1.18213 3.41376
                CHANNELS 3 Zrotation Xrotation Yrotation
                JOINT rMid2
                {
                  OFFSET -3.10165 -0.590103 1.0647
                  CHANNELS 3 Zrotation Xrotation Yrotation
                  End Site
                  {
                    OFFSET -2.48547 -0.328903 0.83742
                  }
                }
              }
              JOINT rRing1
              {
                OFFSET -8.82822 0.546677 1.51678
                CHANNELS 3 Zrotation Xrotation Yrotation
                JOINT rRing2
                {
                  OFFSET -2.60934 -0.819778 -0.0198488
                  CHANNELS 3 Zrotation Xrotation Yrotation
                  End Site
                  {
                    OFFSET -2.33842 -0.294052 0.168128
                  }
                }
              }
              JOINT rPinky1
              {
                OFFSET -8.27202 -0.0477905 -0.4584
                CHANNELS 3 Zrotation Xrotation Yrotation
                JOINT rPinky2
                {
                  OFFSET -1.82734 -0.647385 -0.700984
                  CHANNELS 3 Zrotation Xrotation Yrotation
                  End Site
                  {
                    OFFSET -1.69225 -0.51767 -0.607171
                  }
                }
              }
            }
          }
        }
      }
      JOINT lCollar
      {
        OFFSET 2.68224 19.2634 -4.8768
        CHANNELS 3 Zrotation Xrotation Yrotation
        JOINT lShldr
        {
          OFFSET 8.77824 -1.95073 1.46304
          CHANNELS 3 Zrotation Xrotation Yrotation
          JOINT lForeArm
          {
            OFFSET 28.1742 -1.7115 0.48768
            CHANNELS 3 Zrotation Xrotation Yrotation
            JOINT lHand
            {
              OFFSET 22.5879 0.773209 7.07136
              CHANNELS 3 Zrotation Xrotation Yrotation
              JOINT lThumb1
              {
                OFFSET 1.2192 -0.487915 3.41376
                CHANNELS 3 Zrotation Xrotation Yrotation
                JOINT lThumb2
                {
                  OFFSET 3.37035 -0.52449 3.41376
                  CHANNELS 3 Zrotation Xrotation Yrotation
                  End Site
                  {
                    OFFSET 1.78271 -1.18214 1.43049
                  }
                }
              }
              JOINT lIndex1
              {
                OFFSET 7.75947 0.938293 5.60832
                CHANNELS 3 Zrotation Xrotation Yrotation
                JOINT lIndex2
                {
                  OFFSET 2.54057 -0.884171 1.56538
                  CHANNELS 3 Zrotation Xrotation Yrotation
                  End Site
                  {
                    OFFSET 1.62519 -0.234802 1.16502
                  }
                }
              }
              JOINT lMid1
              {
                OFFSET 8.24714 1.18213 3.41376
                CHANNELS 3 Zrotation Xrotation Yrotation
                JOINT lMid2
                {
                  OFFSET 3.10165 -0.590103 1.0647
                  CHANNELS 3 Zrotation Xrotation Yrotation
                  End Site
                  {
                    OFFSET 2.48547 -0.328903 0.83742
                  }
                }
              }
              JOINT lRing1
              {
                OFFSET 8.82822 0.546677 1.51678
                CHANNELS 3 Zrotation Xrotation Yrotation
                JOINT lRing2
                {
                  OFFSET 2.60934 -0.819778 -0.0198488
                  CHANNELS 3 Zrotation Xrotation Yrotation
                  End Site
                  {
                    OFFSET 2.33842 -0.294052 0.168128
                  }
                }
              }
              JOINT lPinky1
              {
                OFFSET 8.27202 -0.0477905 -0.4584
                CHANNELS 3 Zrotation Xrotation Yrotation
                JOINT lPinky2
                {
                  OFFSET 1.82734 -0.647385 -0.700984
                  CHANNELS 3 Zrotation Xrotation Yrotation
                  End Site
                  {
                    OFFSET 1.69225 -0.51767 -0.607171
                  }
                }
              }
            }
          }
        }
      }
    }
  }
  JOINT rButtock
  {
    OFFSET -8.77824 4.35084 1.2192
    CHANNELS 3 Zrotation Xrotation Yrotation
    JOINT rThigh
    {
      OFFSET 0 -1.70687 -2.19456
      CHANNELS 3 Zrotation Xrotation Yrotation
      JOINT rShin
      {
        OFFSET 0 -36.8199 0.73152
        CHANNELS 3 Zrotation Xrotation Yrotation
        JOINT rFoot
        {
          OFFSET 0.73152 -45.1104 -5.12064
          CHANNELS 3 Zrotation Xrotation Yrotation
          End Site
          {
            OFFSET -1.1221 -3.69964 12.103
          }
        }
      }
    }
  }
  JOINT lButtock
  {
    OFFSET 8.77824 4.35084 1.2192
    CHANNELS 3 Zrotation Xrotation Yrotation
    JOINT lThigh
    {
      OFFSET 0 -1.70687 -2.19456
      CHANNELS 3 Zrotation Xrotation Yrotation
      JOINT lShin
      {
        OFFSET 0 -36.8199 0.73152
        CHANNELS 3 Zrotation Xrotation Yrotation
        JOINT lFoot
        {
          OFFSET -0.73152 -45.1104 -5.12064
          CHANNELS 3 Zrotation Xrotation Yrotation
          End Site
          {
            OFFSET 1.1221 -3.69964 12.103
          }
        }
      }
    }
  }
}
MOTION
Frames:	4
Frame Time:	0.03333
0.2333989366889 -3.7884745746850967 0.8142577484250069 -25.404146194458008 55.47260665893555 -28.663816452026367 9.452829360961914 11.242121696472168 14.6395263671875 -0.6474015116691589 -7.857660293579102 3.7450814247131348 3.9304163455963135 14.302886962890625 16.846059799194336 -4.868805885314941 -19.775354385375977 31.200462341308594 -0.411245197057724 0.24813054502010345 0.02277502790093422 -0.4133923351764679 0.7437415719032288 -0.685650646686554 -0.035111408680677414 0.13419322669506073 0.470296710729599 94.59317016601562 41.16986083984375 -37.256622314453125 -27.79364585876465 -40.489707946777344 85.26715087890625 -5.246249675750732 -53.786170959472656 -11.28944206237793 -0.431925892829895 0.6422381401062012 0.04987001791596413 0.0009693840402178466 -0.2061462700366974 -0.15655678510665894 -0.3042919933795929 0.28525108098983765 -0.2818211615085602 7.905385971069336 5.586430072784424 -0.15466490387916565 0.3594724237918854 0.429531455039978 0.0596214197576046 2.671138286590576 1.6461730003356934 -0.5751221776008606 -0.6790673732757568 0.3351646065711975 -0.004007977433502674 10.382753372192383 1.4154101610183716 0.09641987830400467 0.13960891962051392 -0.010189678519964218 0.4503040611743927 2.5056209564208984 -0.6019005179405212 -0.07804562151432037 -0.39439961314201355 0.2273523360490799 0.01635558530688286 -56.35786056518555 -8.514140129089355 -83.04432678222656 11.155261993408203 -4.6769280433654785 -19.19919204711914 4.837358474731445 55.32292556762695 -11.286725997924805 -0.10886210948228836 -0.3491494953632355 -0.5632832050323486 -0.03620528802275658 -0.48176950216293335 0.1969401091337204 -0.12854860723018646 -0.9078392386436462 0.3888220191001892 -7.4090070724487305 5.256269454956055 -0.7557775974273682 -0.3987504541873932 0.6531461477279663 -0.4857977032661438 -2.9511308670043945 0.5031535029411316 0.28988710045814514 -0.20783962309360504 0.09930291026830673 -0.42662155628204346 -9.81882381439209 0.6027533411979675 0.35247620940208435 0.367194801568985 -0.18642549216747284 0.6806396842002869 -2.3046443462371826 -1.5127085447311401 0.441391259431839 -0.25616654753685 -0.6106979846954346 -0.019363828003406525 -3.4460268020629883 -4.761662483215332 -2.84375262260437 -0.03697160258889198 53.41061782836914 2.653745651245117 -15.187210083007812 -17.425756454467773 -28.818466186523438 0.2788744270801544 -0.37707313895225525 -0.27171453833580017 54.444854736328125 -59.62593078613281 37.954105377197266 1.989266276359558 68.0964126586914 -1.7368282079696655 0.8323920965194702 -0.6811092495918274 1.2532060146331787
0.28568077832460403 -3.761918842792511 0.7991091348230839 -26.358604431152344 52.90019607543945 -28.1243896484375 9.184473037719727 11.08737850189209 14.19593334197998 -0.7986552119255066 -8.304472923278809 3.7449071407318115 3.258053779602051 14.864298820495605 15.679210662841797 -3.7035226821899414 -19.663419723510742 29.67011833190918 -0.44515424966812134 0.3887742757797241 0.13422037661075592 -0.17702752351760864 0.624772846698761 -0.6243456602096558 -0.24077680706977844 0.18001051247119904 0.48387831449508667 94.98383331298828 41.786468505859375 -38.29594802856445 -27.880294799804688 -39.7673225402832 84.53646087646484 -5.248205661773682 -54.30601501464844 -11.634923934936523 -0.18086914718151093 0.6194978356361389 -0.05821360647678375 -0.09407688677310944 -0.07834451645612717 -0.4476272463798523 -0.2763475477695465 0.11680123209953308 -0.38535255193710327 8.217631340026855 5.836484909057617 0.0161565113812685 0.5742918848991394 0.6790087223052979 -0.18020612001419067 2.737457275390625 1.777258276939392 -0.38857030868530273 -0.9481834769248962 0.5212590098381042 -0.09975682199001312 10.617238998413086 1.6450886726379395 -0.06808128952980042 0.19683191180229187 -0.20584838092327118 0.43468815088272095 2.3891873359680176 -0.6091352701187134 -0.5192326307296753 -0.6534077525138855 0.31334033608436584 -0.01080723199993372 -55.83802795410156 -7.88013219833374 -82.07756042480469 11.151300430297852 -4.487946510314941 -18.62522315979004 5.048337459564209 56.23296356201172 -11.632185935974121 -0.2354033887386322 -0.024178117513656616 -0.8441475033760071 0.19327528774738312 -0.5932965874671936 0.33633434772491455 -0.17522738873958588 -0.8500046133995056 0.2925199866294861 -7.3670806884765625 5.140324115753174 -0.6804103255271912 -0.5756055116653442 0.45872485637664795 -0.50604647397995 -3.049085855484009 0.5810916423797607 0.2654707133769989 -0.19253765046596527 0.1536722034215927 -0.39174684882164 -9.664443969726562 0.5014698505401611 0.5270941257476807 0.4780923128128052 0.06789013743400574 0.719599723815918 -1.9735130071640015 -1.5456334352493286 0.4082418978214264 -0.18132154643535614 -0.4135303199291229 0.11552760004997253 -2.9291720390319824 -5.1911420822143555 -2.946112632751465 -0.16070064902305603 54.43763732910156 3.108846664428711 -15.23209285736084 -17.034107208251953 -28.377382278442383 0.3451632559299469 -0.4455985426902771 -0.4604629874229431 55.39021682739258 -59.80059814453125 39.28898239135742 2.1864430904388428 68.30037689208984 -1.7550640106201172 0.7299357652664185 -0.3453938663005829 1.177268624305725
0.32087061554193497 -3.7964295595884323 0.814950093626976 -24.377883911132812 60.32271194458008 -29.390018463134766 8.752111434936523 11.088364601135254 13.361937522888184 -0.2745445966720581 -8.462057113647461 3.6399319171905518 3.4307732582092285 14.427624702453613 15.062613487243652 -3.5377986431121826 -20.58652687072754 29.046167373657227 -0.509859561920166 0.30844151973724365 0.08821282535791397 -0.07380357384681702 0.3896953761577606 -0.5868462324142456 -0.33226993680000305 -0.029290538281202316 0.8259377479553223 85.25105285644531 42.2672233581543 -28.724641799926758 -27.984743118286133 -37.73341751098633 80.53932189941406 -3.2468976974487305 -48.523887634277344 -8.869673728942871 -0.16855134069919586 0.44269630312919617 0.014813873916864395 0.3751421570777893 0.10818251222372055 -0.6112894415855408 -0.4426289498806 -0.21452943980693817 -0.24233323335647583 8.741206169128418 5.868507385253906 -0.06730438768863678 0.16731153428554535 -0.08120402693748474 -0.494075208902359 3.172320604324341 1.3143482208251953 -0.6251219511032104 -0.825162947177887 0.3009242117404938 -0.10952818393707275 10.183502197265625 1.640246033668518 -0.2012876719236374 0.3040916919708252 -0.30665484070777893 -0.42411085963249207 2.6777901649475098 -0.9049225449562073 -0.3488204777240753 -0.7527642250061035 -0.09016534686088562 0.029274115338921547 -52.51126480102539 -8.137310028076172 -87.43927001953125 10.556205749511719 -4.134726047515869 -17.33611297607422 4.855325222015381 52.849918365478516 -10.760176658630371 -0.16813379526138306 -0.15093979239463806 -0.17839370667934418 0.05570514127612114 -0.04347795993089676 0.09987685084342957 -0.1571701467037201 -0.7420932650566101 0.3008294403553009 -7.326476097106934 5.2447733879089355 -0.40061402320861816 -0.4284084737300873 0.171499565243721 0.06827911734580994 -3.038057565689087 0.9065138697624207 0.3215027451515198 -0.8230625987052917 -0.05400615930557251 -0.4449850022792816 -9.497078895568848 0.6691769957542419 0.5797981023788452 0.669933021068573 -0.08727801591157913 0.6354593634605408 -2.021329402923584 -1.1172878742218018 0.4424838721752167 -0.1009802520275116 -0.41822755336761475 0.28814083337783813 -3.088358163833618 -8.437993049621582 -4.113125801086426 0.023182064294815063 57.99783706665039 1.9259659051895142 -16.176876068115234 -16.319311141967773 -30.52442741394043 0.6391750574111938 -0.512903094291687 -0.5108984708786011 55.893253326416016 -62.31877136230469 40.127052307128906 3.7078893184661865 69.39380645751953 -3.468942403793335 0.5805098414421082 -0.2369021326303482 0.3073885142803192
0.3589460626244545 -3.8127832114696503 0.845059659332037 -25.117149353027344 63.986907958984375 -25.546613693237305 8.177133560180664 10.320876121520996 13.382345199584961 -0.660761833190918 -8.098844528198242 3.2444865703582764 3.580810546875 13.617294311523438 15.367484092712402 -4.427895545959473 -20.275537490844727 29.01751708984375 -0.5265909433364868 0.26127150654792786 -0.10200630128383636 -0.04083544388413429 0.4732770621776581 -0.2892366349697113 -0.28200387954711914 0.23142802715301514 0.8163613677024841 77.48458862304688 42.17227554321289 -19.713369369506836 -27.98007583618164 -35.88313293457031 77.4124526977539 -2.7889275550842285 -44.34836959838867 -7.8491034507751465 -0.3789156973361969 0.28331783413887024 -0.0011723785428330302 0.41326722502708435 0.10390960425138474 -0.6130686402320862 -0.46148982644081116 -0.1188146322965622 -0.17439331114292145 8.47410774230957 5.810297966003418 0.16259834170341492 0.09555383771657944 -0.6202788949012756 -0.3494890034198761 3.0231151580810547 1.3436694145202637 -0.6843758821487427 -0.6098704934120178 0.26308009028434753 -0.24443767964839935 9.769165992736816 1.1295409202575684 -0.12772473692893982 0.10168866813182831 -0.1766088455915451 -0.6877323985099792 2.685129165649414 -1.1208746433258057 -0.3326887786388397 -0.49130433797836304 -0.19429127871990204 -0.400310218334198 -48.763526916503906 -5.8434882164001465 -89.63548278808594 11.451494216918945 -4.612538814544678 -19.80379295349121 2.9198102951049805 43.296817779541016 -7.595871925354004 0.2068948745727539 -0.5121192336082458 0.15431618690490723 0.2611110210418701 0.24007265269756317 -0.3273930251598358 -0.3192659020423889 -0.5354858636856079 -0.0718056932091713 -7.238049030303955 5.349854946136475 -0.18679171800613403 -0.3835575580596924 0.12456915527582169 0.5469945669174194 -3.1580123901367188 1.1042197942733765 0.39240920543670654 -0.5101182460784912 -0.24538744986057281 -0.33998486399650574 -9.943892478942871 0.626542866230011 0.3812970519065857 0.5464239716529846 0.1877371370792389 0.6803162097930908 -2.0663509368896484 -0.972861647605896 0.6575440764427185 -0.45262134075164795 -0.29185184836387634 0.3841110169887543 -3.388725757598877 -9.65331745147705 -5.415374755859375 0.0017156440299004316 59.50605773925781 1.5966079235076904 -16.828536987304688 -16.55021858215332 -32.28310775756836 0.54398512840271 -0.3303762972354889 -0.22680145502090454 53.58417510986328 -64.1085433959961 37.53987121582031 2.0758745670318604 68.70402526855469 -1.8833132982254028 0.44649288058280945 0.059058766812086105 -0.7788434028625488
